{
	"asset":{
		"version":"2.0",
		"generator":"Created using the official Cinema 4D glTF Exporter 1.000x284978"
	},
	"materials":[{
		"pbrMetallicRoughness":{
			"baseColorFactor":[1.0,
			1.0,
			0.49,
			1.0],
			"metallicFactor":1.0,
			"roughnessFactor":1.0
		},
		"emissiveFactor":[0.0,
		0.0,
		0.0],
		"alphaMode":"OPAQUE",
		"doubleSided":true,
		"name":"Sun_Mat"
	},
	{
		"pbrMetallicRoughness":{
			"baseColorFactor":[0.76,
			0.9119999999999995,
			1.0,
			1.0],
			"metallicFactor":1.0,
			"roughnessFactor":1.0
		},
		"emissiveFactor":[0.0,
		0.0,
		0.0],
		"alphaMode":"OPAQUE",
		"doubleSided":true,
		"name":"Cloud_Mat"
	}],
	"scenes":[{
		"nodes":[0]
	}],
	"nodes":[{
		"name":"MoonSun",
		"translation":[-182.14349365234376,
		-101.57848358154297,
		232.87289428710938],
		"rotation":[0.0,
		0.0,
		0.0,
		-1.0],
		"scale":[1.0,
		1.0,
		1.0],
		"children":[1,
		2]
	},
	{
		"name":"MoonSun-Sun_Mat",
		"mesh":0
	},
	{
		"name":"MoonSun-Cloud_Mat",
		"mesh":1
	}],
	"meshes":[{
		"name":"MoonSun-Sun_Mat",
		"primitives":[{
			"attributes":{
				"POSITION":1,
				"NORMAL":2,
				"TEXCOORD_0":3
			},
			"indices":0,
			"material":0
		}]
	},
	{
		"name":"MoonSun-Cloud_Mat",
		"primitives":[{
			"attributes":{
				"POSITION":5,
				"NORMAL":6,
				"TEXCOORD_0":7
			},
			"indices":4,
			"material":1
		}]
	}],
	"accessors":[{
		"bufferView":0,
		"type":"SCALAR",
		"componentType":5123,
		"count":1320,
		"byteOffset":0,
		"min":[0],
		"max":[382]
	},
	{
		"bufferView":1,
		"type":"VEC3",
		"componentType":5126,
		"count":383,
		"byteOffset":0,
		"min":[-319.9826354980469,
		7.747551918029785,
		-461.6731262207031],
		"max":[444.0,
		680.0,
		795.0]
	},
	{
		"bufferView":1,
		"type":"VEC3",
		"componentType":5126,
		"count":383,
		"byteOffset":12,
		"min":[-1.0,
		-1.0,
		-1.0],
		"max":[1.0,
		1.0,
		1.0]
	},
	{
		"bufferView":1,
		"type":"VEC2",
		"componentType":5126,
		"count":383,
		"byteOffset":24,
		"min":[-0.16335000097751618,
		-2.4154858589172365],
		"max":[1.1794660091400147,
		1.3064818382263184]
	},
	{
		"bufferView":2,
		"type":"SCALAR",
		"componentType":5123,
		"count":75072,
		"byteOffset":0,
		"min":[0],
		"max":[14765]
	},
	{
		"bufferView":3,
		"type":"VEC3",
		"componentType":5126,
		"count":14766,
		"byteOffset":0,
		"min":[-613.9486083984375,
		19.83397102355957,
		-367.7747802734375],
		"max":[775.7028198242188,
		376.1660461425781,
		176.49757385253907]
	},
	{
		"bufferView":3,
		"type":"VEC3",
		"componentType":5126,
		"count":14766,
		"byteOffset":12,
		"min":[-1.0,
		-1.0,
		-1.0],
		"max":[1.0,
		1.0,
		1.0]
	},
	{
		"bufferView":3,
		"type":"VEC2",
		"componentType":5126,
		"count":14766,
		"byteOffset":24,
		"min":[0.0,
		0.03125],
		"max":[1.0,
		0.96875]
	}],
	"bufferViews":[{
		"byteLength":2640,
		"buffer":0,
		"byteOffset":0,
		"target":34963
	},
	{
		"byteLength":12256,
		"buffer":0,
		"byteOffset":2640,
		"byteStride":32,
		"target":34962
	},
	{
		"byteLength":150144,
		"buffer":1,
		"byteOffset":0,
		"target":34963
	},
	{
		"byteLength":472512,
		"buffer":1,
		"byteOffset":150144,
		"byteStride":32,
		"target":34962
	}],
	"buffers":[{
		"uri":"data:application/octet-stream;base64,",
		"byteLength":14896
	},
	{
		"uri":"data:application/octet-stream;base64,",
		"byteLength":622656
	}]
}